<?xml version="1.0" encoding="UTF-8"?>
<svg xmlns="http://www.w3.org/2000/svg" xmlns:xlink="http://www.w3.org/1999/xlink" width="600" height="900" viewBox="0 0 600 900">
  <defs>
    <clipPath id="clip0">
      <rect width="600" height="900"/>
    </clipPath>
  </defs>
  <g clip-path="url(#clip0)">
    <path d="M566 0L34 0C15.22 0 0 15.22 0 34L0 866C0 884.78 15.22 900 34 900L566 900C584.78 900 600 884.78 600 866L600 34C600 15.22 584.78 0 566 0Z" fill="#050505"/>
    <g transform="translate(388, 199)" opacity="0.9">
      <path d="M0 80C0 58.78 8.43 38.43 23.43 23.43M23.43 23.43C38.43 8.43 58.78 0 80 0M80 0C101.22 0 121.57 8.43 136.57 23.43M136.57 23.43C151.57 38.43 160 58.78 160 80" fill="none" stroke="#171717" stroke-width="3"/>
      <path d="M0 80L1.5 80C1.5 59.18 9.77 39.21 24.49 24.49L23.43 23.43L22.37 22.37C7.09 37.66 -1.5 58.38 -1.5 80L0 80ZM23.43 23.43L24.49 24.49C39.21 9.77 59.18 1.5 80 1.5L80 0L80 -1.5C58.38 -1.5 37.66 7.09 22.37 22.37L23.43 23.43ZM80 0L80 1.5C100.82 1.5 120.79 9.77 135.51 24.49L136.57 23.43L137.63 22.37C122.34 7.09 101.62 -1.5 80 -1.5L80 0ZM136.57 23.43L135.51 24.49C150.23 39.21 158.5 59.18 158.5 80L160 80L161.5 80C161.5 58.38 152.91 37.66 137.63 22.37L136.57 23.43Z" fill="#171717" stroke="none"/>
    </g>
    <g transform="translate(358, 169)" opacity="0.9">
      <path d="M0 110C0 80.83 11.59 52.85 32.22 32.22M32.22 32.22C52.85 11.59 80.83 0 110 0M110 0C139.17 0 167.15 11.59 187.78 32.22M187.78 32.22C208.41 52.85 220 80.83 220 110" fill="none" stroke="#171717" stroke-width="3"/>
      <path d="M110 0L110 -1.5L110 0ZM0 110L1.5 110C1.5 81.22 12.93 53.63 33.28 33.28L32.22 32.22L31.16 31.16C10.25 52.07 -1.5 80.43 -1.5 110L0 110ZM32.22 32.22L33.28 33.28C53.63 12.93 81.22 1.5 110 1.5L110 0L110 -1.5C80.43 -1.5 52.07 10.25 31.16 31.16L32.22 32.22ZM110 0L110 1.5C138.78 1.5 166.37 12.93 186.72 33.28L187.78 32.22L188.84 31.16C167.93 10.25 139.57 -1.5 110 -1.5L110 0ZM187.78 32.22L186.72 33.28C207.07 53.63 218.5 81.22 218.5 110L220 110L221.5 110C221.5 80.43 209.75 52.07 188.84 31.16L187.78 32.22Z" fill="#171717" stroke="none"/>
    </g>
    <g transform="translate(328, 139)" opacity="0.9">
      <path d="M0 140C0 102.87 14.75 67.26 41.01 41.01M41.01 41.01C67.26 14.75 102.87 0 140 0M140 0C177.13 0 212.74 14.75 238.99 41.01M238.99 41.01C265.25 67.26 280 102.87 280 140" fill="none" stroke="#171717" stroke-width="3"/>
      <path d="M140 0L140 -1.5L140 0ZM0 140L1.5 140C1.5 103.27 16.09 68.04 42.07 42.07L41.01 41.01L39.94 39.94C13.41 66.48 -1.5 102.47 -1.5 140L0 140ZM41.01 41.01L42.07 42.07C68.04 16.09 103.27 1.5 140 1.5L140 0L140 -1.5C102.47 -1.5 66.48 13.41 39.94 39.94L41.01 41.01ZM140 0L140 1.5C176.73 1.5 211.96 16.09 237.93 42.07L238.99 41.01L240.06 39.94C213.52 13.41 177.53 -1.5 140 -1.5L140 0ZM238.99 41.01L237.93 42.07C263.91 68.04 278.5 103.27 278.5 140L280 140L281.5 140C281.5 102.47 266.59 66.48 240.06 39.94L238.99 41.01Z" fill="#171717" stroke="none"/>
    </g>
    <g transform="translate(298, 109)" opacity="0.9">
      <path d="M0 170C0 124.91 17.91 81.67 49.79 49.79M49.79 49.79C81.67 17.91 124.91 0 170 0M170 0C215.09 0 258.33 17.91 290.21 49.79M290.21 49.79C322.09 81.67 340 124.91 340 170" fill="none" stroke="#171717" stroke-width="3"/>
      <path d="M170 0L170 -1.5L170 0ZM0 170L1.5 170C1.5 125.31 19.25 82.45 50.85 50.85L49.79 49.79L48.73 48.73C16.57 80.89 -1.5 124.52 -1.5 170L0 170ZM49.79 49.79L50.85 50.85C82.45 19.25 125.31 1.5 170 1.5L170 0L170 -1.5C124.52 -1.5 80.89 16.57 48.73 48.73L49.79 49.79ZM170 0L170 1.5C214.69 1.5 257.55 19.25 289.15 50.85L290.21 49.79L291.27 48.73C259.11 16.57 215.48 -1.5 170 -1.5L170 0ZM290.21 49.79L289.15 50.85C320.75 82.45 338.5 125.31 338.5 170L340 170L341.5 170C341.5 124.52 323.43 80.89 291.27 48.73L290.21 49.79Z" fill="#171717" stroke="none"/>
    </g>
    <g transform="translate(268, 79)" opacity="0.9">
      <path d="M0 200C0 146.96 21.07 96.09 58.58 58.58M58.58 58.58C96.09 21.07 146.96 0 200 0M200 0C253.04 0 303.91 21.07 341.42 58.58M341.42 58.58C378.93 96.09 400 146.96 400 200" fill="none" stroke="#171717" stroke-width="3"/>
      <path d="M200 0L200 1.5L200 0ZM0 200L1.5 200C1.5 147.35 22.41 96.87 59.64 59.64L58.58 58.58L57.52 57.52C19.73 95.31 -1.5 146.56 -1.5 200L0 200ZM58.58 58.58L59.64 59.64C96.87 22.41 147.35 1.5 200 1.5L200 0L200 -1.5C146.56 -1.5 95.31 19.73 57.52 57.52L58.58 58.58ZM200 0L200 1.5C252.65 1.5 303.13 22.41 340.36 59.64L341.42 58.58L342.48 57.52C304.69 19.73 253.44 -1.5 200 -1.5L200 0ZM341.42 58.58L340.36 59.64C377.59 96.87 398.5 147.35 398.5 200L400 200L401.5 200C401.5 146.56 380.27 95.31 342.48 57.52L341.42 58.58Z" fill="#171717" stroke="none"/>
    </g>
    <g transform="translate(238, 49)" opacity="0.9">
      <path d="M0 230C0 169 24.23 110.5 67.37 67.37M67.37 67.37C110.5 24.23 169 0 230 0M230 0C291 0 349.5 24.23 392.63 67.37M392.63 67.37C435.77 110.5 460 169 460 230" fill="none" stroke="#171717" stroke-width="3"/>
      <path d="M230 0L230 -1.5L230 0ZM0 230L1.5 230C1.5 169.4 25.57 111.28 68.43 68.43L67.37 67.37L66.3 66.3C22.89 109.72 -1.5 168.6 -1.5 230L0 230ZM67.37 67.37L68.43 68.43C111.28 25.57 169.4 1.5 230 1.5L230 0L230 -1.5C168.6 -1.5 109.72 22.89 66.3 66.3L67.37 67.37ZM230 0L230 1.5C290.6 1.5 348.72 25.57 391.57 68.43L392.63 67.37L393.7 66.3C350.28 22.89 291.4 -1.5 230 -1.5L230 0ZM392.63 67.37L391.57 68.43C434.43 111.28 458.5 169.4 458.5 230L460 230L461.5 230C461.5 168.6 437.11 109.72 393.7 66.3L392.63 67.37Z" fill="#171717" stroke="none"/>
    </g>
    <g transform="translate(208, 19)" opacity="0.9">
      <path d="M0 260C0 191.04 27.39 124.91 76.15 76.15M76.15 76.15C124.91 27.39 191.04 0 260 0M260 0C328.96 0 395.09 27.39 443.85 76.15M443.85 76.15C492.61 124.91 520 191.04 520 260" fill="none" stroke="#171717" stroke-width="3"/>
      <path d="M260 0L260 -1.5L260 0ZM0 260L1.5 260C1.5 191.44 28.73 125.69 77.21 77.21L76.15 76.15L75.09 75.09C26.05 124.13 -1.5 190.65 -1.5 260L0 260ZM76.15 76.15L77.21 77.21C125.69 28.73 191.44 1.5 260 1.5L260 0L260 -1.5C190.65 -1.5 124.13 26.05 75.09 75.09L76.15 76.15ZM260 0L260 1.5C328.56 1.5 394.31 28.73 442.79 77.21L443.85 76.15L444.91 75.09C395.87 26.05 329.35 -1.5 260 -1.5L260 0ZM443.85 76.15L442.79 77.21C491.27 125.69 518.5 191.44 518.5 260L520 260L521.5 260C521.5 190.65 493.95 124.13 444.91 75.09L443.85 76.15Z" fill="#171717" stroke="none"/>
    </g>
    <g transform="translate(178, -11)" opacity="0.9">
      <path d="M0 290C0 213.09 30.55 139.32 84.94 84.94M84.94 84.94C139.32 30.55 213.09 0 290 0M290 0C366.91 0 440.68 30.55 495.06 84.94M495.06 84.94C549.45 139.32 580 213.09 580 290" fill="none" stroke="#171717" stroke-width="3"/>
      <path d="M290 0L290 -1.5L290 0ZM0 290L1.5 290C1.5 213.49 31.9 140.1 86 86L84.94 84.94L83.88 83.88C29.21 138.55 -1.5 212.69 -1.5 290L0 290ZM84.94 84.94L86 86C140.1 31.9 213.49 1.5 290 1.5L290 0L290 -1.5C212.69 -1.5 138.55 29.21 83.88 83.88L84.94 84.94ZM290 0L290 1.5C366.51 1.5 439.9 31.9 494 86L495.06 84.94L496.12 83.88C441.45 29.21 367.31 -1.5 290 -1.5L290 0ZM495.06 84.94L494 86C548.1 140.1 578.5 213.49 578.5 290L580 290L581.5 290C581.5 212.69 550.79 138.55 496.12 83.88L495.06 84.94Z" fill="#171717" stroke="none"/>
    </g>
    <g transform="translate(148, -41)" opacity="0.9">
      <path d="M0 320C0 235.13 33.71 153.74 93.73 93.73M93.73 93.73C153.74 33.71 235.13 0 320 0M320 0C404.87 0 486.26 33.71 546.27 93.73M546.27 93.73C606.29 153.74 640 235.13 640 320" fill="none" stroke="#171717" stroke-width="3"/>
      <path d="M320 0L320 -1.5L320 0ZM0 320L1.5 320C1.5 235.53 35.06 154.52 94.79 94.79L93.73 93.73L92.67 92.67C32.37 152.96 -1.5 234.73 -1.5 320L0 320ZM93.73 93.73L94.79 94.79C154.52 35.06 235.53 1.5 320 1.5L320 0L320 -1.5C234.73 -1.5 152.96 32.37 92.67 92.67L93.73 93.73ZM320 0L320 1.5C404.47 1.5 485.48 35.06 545.21 94.79L546.27 93.73L547.33 92.67C487.04 32.37 405.27 -1.5 320 -1.5L320 0ZM546.27 93.73L545.21 94.79C604.94 154.52 638.5 235.53 638.5 320L640 320L641.5 320C641.5 234.73 607.63 152.96 547.33 92.67L546.27 93.73Z" fill="#171717" stroke="none"/>
    </g>
    <g transform="translate(118, -71)" opacity="0.9">
      <path d="M0 350C0 257.17 36.87 168.15 102.51 102.51M102.51 102.51C168.15 36.87 257.17 0 350 0M350 0C442.83 0 531.85 36.87 597.49 102.51M597.49 102.51C663.13 168.15 700 257.17 700 350" fill="none" stroke="#171717" stroke-width="3"/>
      <path d="M350 0L350 -1.5L350 0ZM0 350L1.5 350C1.5 257.57 38.22 168.93 103.57 103.57L102.51 102.51L101.45 101.45C35.53 167.37 -1.5 256.78 -1.5 350L0 350ZM102.51 102.51L103.57 103.57C168.93 38.22 257.57 1.5 350 1.5L350 0L350 -1.5C256.78 -1.5 167.37 35.53 101.45 101.45L102.51 102.51ZM350 0L350 1.5C442.43 1.5 531.07 38.22 596.43 103.57L597.49 102.51L598.55 101.45C532.63 35.53 443.22 -1.5 350 -1.5L350 0ZM597.49 102.51L596.43 103.57C661.78 168.93 698.5 257.57 698.5 350L700 350L701.5 350C701.5 256.78 664.47 167.37 598.55 101.45L597.49 102.51Z" fill="#171717" stroke="none"/>
    </g>
    <g transform="translate(93, 111)">
      <g>
        <path d="M33.17 0L185.77 0M185.77 0C204.73 0 218 13.14 218 31.9M218 31.9L218 120.1M218 120.1C218 139.8 204.73 152 184.83 152M184.83 152L70.14 152M23.7 149.19C7.58 145.43 0 135.11 0 118.22M0 118.22L0 31.9M0 31.9C0 13.14 12.32 0 33.17 0" fill="none" stroke="#A27534" stroke-width="14" stroke-linecap="round" stroke-linejoin="round"/>
        <path d="M70.14 145C66.27 145 63.14 148.13 63.14 152C63.14 155.87 66.27 159 70.14 159L70.14 152L70.14 145ZM22.11 156C25.87 156.88 29.64 154.54 30.51 150.77C31.39 147.01 29.05 143.24 25.28 142.37L23.7 149.19L22.11 156ZM33.17 0L33.17 7L185.77 7L185.77 0L185.77 -7L33.17 -7L33.17 0ZM185.77 0L185.77 7C193.6 7 199.82 9.68 204.07 13.89C208.31 18.09 211 24.22 211 31.9L218 31.9L225 31.9C225 20.82 221.05 11 213.92 3.94C206.79 -3.12 196.91 -7 185.77 -7L185.77 0ZM218 31.9L211 31.9L211 120.1L218 120.1L225 120.1L225 31.9L218 31.9ZM218 120.1L211 120.1C211 128.32 208.27 134.36 204.06 138.36C199.8 142.41 193.35 145 184.83 145L184.83 152L184.83 159C196.2 159 206.35 155.49 213.7 148.51C221.09 141.49 225 131.58 225 120.1L218 120.1ZM184.83 152L184.83 145L70.14 145L70.14 152L70.14 159L184.83 159L184.83 152ZM23.7 149.19L25.28 142.37C18.39 140.76 14.07 137.95 11.38 134.4C8.66 130.81 7 125.65 7 118.22L0 118.22L-7 118.22C-7 127.68 -4.87 136.13 0.23 142.86C5.36 149.63 12.89 153.85 22.11 156L23.7 149.19ZM0 118.22L7 118.22L7 31.9L0 31.9L-7 31.9L-7 118.22L0 118.22ZM0 31.9L7 31.9C7 24.08 9.54 18 13.69 13.89C17.84 9.78 24.24 7 33.17 7L33.17 0L33.17 -7C21.25 -7 11.07 -3.21 3.84 3.94C-3.38 11.09 -7 20.96 -7 31.9L0 31.9Z" fill="#A27534" stroke="none"/>
      </g>
      <g transform="translate(34, 44)">
        <path d="M0 0L63.68 0M63.68 0C92.63 0 110 16.5 110 38.5M110 38.5C110 60.5 92.63 77 63.68 77M63.68 77L37.63 77" fill="none" stroke="#A27534" stroke-width="14" stroke-linejoin="round"/>
        <path d="M0 0L0 7L63.68 7L63.68 0L63.68 -7L0 -7L0 0ZM63.68 0L63.68 7C76.85 7 86.69 10.74 93.12 16.3C99.48 21.79 103 29.45 103 38.5L110 38.5L117 38.5C117 25.55 111.83 13.96 102.27 5.7C92.78 -2.49 79.46 -7 63.68 -7L63.68 0ZM110 38.5L103 38.5C103 47.55 99.48 55.21 93.12 60.7C86.69 66.26 76.85 70 63.68 70L63.68 77L63.68 84C79.46 84 92.78 79.49 102.27 71.3C111.83 63.04 117 51.45 117 38.5L110 38.5ZM63.68 77L63.68 70L37.63 70L37.63 77L37.63 84L63.68 84L63.68 77Z" fill="#A27534" stroke="none"/>
      </g>
      <g transform="translate(48, 82)">
        <path d="M57 0L0 0M0 0L0 70" fill="none" stroke="#A27534" stroke-width="14" stroke-linecap="round" stroke-linejoin="round"/>
        <path d="M57 7C60.87 7 64 3.87 64 0C64 -3.87 60.87 -7 57 -7L57 0L57 7ZM0 0L0 -7C-3.87 -7 -7 -3.87 -7 0L0 0ZM-7 70C-7 73.87 -3.87 77 0 77C3.87 77 7 73.87 7 70L0 70L-7 70ZM57 0L57 -7L0 -7L0 0L0 7L57 7L57 0ZM0 0L-7 0L-7 70L0 70L7 70L7 0L0 0Z" fill="#A27534" stroke="none"/>
      </g>
      <g transform="translate(151.42, 22.2)">
        <g transform="translate(0, 0)">
          <path d="M0 0C22.63 0 40.55 17.92 40.55 40.55" fill="none" stroke="#A27534" stroke-width="5" stroke-linecap="round"/>
          <path d="M0 -2.5C-1.38 -2.5 -2.5 -1.38 -2.5 0C-2.5 1.38 -1.38 2.5 0 2.5L0 0L0 -2.5ZM38.05 40.55C38.05 41.93 39.17 43.05 40.55 43.05C41.93 43.05 43.05 41.93 43.05 40.55L40.55 40.55L38.05 40.55ZM0 0L0 2.5C21.25 2.5 38.05 19.3 38.05 40.55L40.55 40.55L43.05 40.55C43.05 16.54 24.01 -2.5 0 -2.5L0 0Z" fill="#A27534" stroke="none"/>
        </g>
        <g transform="translate(2.83, 14.14)">
          <path d="M0 0C14.14 0 24.52 10.37 24.52 24.52" fill="none" stroke="#A27534" stroke-width="5" stroke-linecap="round"/>
          <path d="M0 -2.5C-1.38 -2.5 -2.5 -1.38 -2.5 0C-2.5 1.38 -1.38 2.5 0 2.5L0 0L0 -2.5ZM22.02 24.52C22.02 25.9 23.14 27.02 24.52 27.02C25.9 27.02 27.02 25.9 27.02 24.52L24.52 24.52L22.02 24.52ZM0 0L0 2.5C12.76 2.5 22.02 11.75 22.02 24.52L24.52 24.52L27.02 24.52C27.02 8.99 15.53 -2.5 0 -2.5L0 0Z" fill="#A27534" stroke="none"/>
        </g>
        <g transform="translate(2.83, 27.45)">
          <path d="M0 0C6.6 0 11.32 4.71 11.32 11.32" fill="none" stroke="#A27534" stroke-width="5" stroke-linecap="round"/>
          <path d="M0 -2.5C-1.38 -2.5 -2.5 -1.38 -2.5 0C-2.5 1.38 -1.38 2.5 0 2.5L0 0L0 -2.5ZM8.82 11.32C8.82 12.7 9.93 13.82 11.32 13.82C12.7 13.82 13.82 12.7 13.82 11.32L11.32 11.32L8.82 11.32ZM0 0L0 2.5C5.22 2.5 8.82 6.1 8.82 11.32L11.32 11.32L13.82 11.32C13.82 3.33 7.98 -2.5 0 -2.5L0 0Z" fill="#A27534" stroke="none"/>
        </g>
      </g>
    </g>
    <g transform="translate(92, 288)">
      <text x="0" y="82" font-family="Inter" font-size="82" fill="#FFFFFF">POP</text>
    </g>
    <g transform="translate(98, 393)">
      <text x="0" y="25" font-family="Inter" font-size="25" fill="#FFFFFF">by POPWAM</text>
    </g>
    <g transform="translate(177, 800)">
      <text x="123" y="28" font-family="Inter" font-size="28" fill="#B9986B" text-anchor="middle">TAP TO CONNECT</text>
    </g>
    <g transform="translate(445, 395) rotate(-5.97, 60.69, 60.69)">
      <g transform="translate(0, 0) rotate(48.59, 43, 43)">
        <path d="M0 0C47.78 0 86 38.22 86 86" fill="none" stroke="#C99945" stroke-width="8" stroke-linecap="round"/>
        <path d="M0 -4C-2.21 -4 -4 -2.21 -4 0C-4 2.21 -2.21 4 0 4L0 0L0 -4ZM82 86C82 88.21 83.79 90 86 90C88.21 90 90 88.21 90 86L86 86L82 86ZM0 0L0 4C45.57 4 82 40.43 82 86L86 86L90 86C90 36.01 49.99 -4 0 -4L0 0Z" fill="#C99945" stroke="none"/>
      </g>
      <g transform="translate(9.88, 24.43) rotate(48.59, 25, 25)">
        <path d="M0 0C28.57 0 50 21.43 50 50" fill="none" stroke="#C99945" stroke-width="8" stroke-linecap="round"/>
        <path d="M0 -4C-2.21 -4 -4 -2.21 -4 0C-4 2.21 -2.21 4 0 4L0 0L0 -4ZM46 50C46 52.21 47.79 54 50 54C52.21 54 54 52.21 54 50L50 50L46 50ZM0 0L0 4C26.36 4 46 23.64 46 50L50 50L54 50C54 19.22 30.78 -4 0 -4L0 0Z" fill="#C99945" stroke="none"/>
      </g>
      <g transform="translate(16.76, 48.2) rotate(48.59, 9.5, 9.5)">
        <path d="M0 0C11.88 0 19 7.13 19 19" fill="none" stroke="#C99945" stroke-width="8" stroke-linecap="round"/>
        <path d="M0 -4C-2.21 -4 -4 -2.21 -4 0C-4 2.21 -2.21 4 0 4L0 0L0 -4ZM15 19C15 21.21 16.79 23 19 23C21.21 23 23 21.21 23 19L19 19L15 19ZM0 0L0 4C5.14 4 8.77 5.52 11.12 7.88C13.48 10.23 15 13.86 15 19L19 19L23 19C23 12.26 20.96 6.4 16.78 2.22C12.6 -1.96 6.74 -4 0 -4L0 0Z" fill="#C99945" stroke="none"/>
      </g>
    </g>
  </g>
</svg>