<?xml version="1.0" encoding="UTF-8"?>
<svg xmlns="http://www.w3.org/2000/svg" xmlns:xlink="http://www.w3.org/1999/xlink" width="1035" height="1035" viewBox="0 0 1035 1035">
  <defs>
    <clipPath id="clip0">
      <rect width="1035" height="1035"/>
    </clipPath>
  </defs>
  <g>
    <rect width="1035" height="1035" fill="#FFFFFF"/>
    <g clip-path="url(#clip0)">
      <g transform="translate(130, 245)">
        <path d="M117.93 0L660.43 0M660.43 0C727.83 0 775 47.19 775 114.59M775 114.59L775 431.41M775 431.41C775 502.19 727.83 546 657.07 546M657.07 546L249.35 546M84.24 535.89C26.96 522.41 0 485.33 0 424.67M0 424.67L0 114.59M0 114.59C0 47.19 43.8 0 117.93 0" fill="none" stroke="#1E1E1E" stroke-width="62" stroke-linecap="round" stroke-linejoin="round"/>
        <path d="M249.35 515C232.23 515 218.35 528.88 218.35 546C218.35 563.12 232.23 577 249.35 577L249.35 546L249.35 515ZM77.14 566.06C93.8 569.99 110.49 559.66 114.41 542.99C118.34 526.33 108.01 509.64 91.34 505.71L84.24 535.89L77.14 566.06ZM117.93 0L117.93 31L660.43 31L660.43 0L660.43 -31L117.93 -31L117.93 0ZM660.43 0L660.43 31C686.7 31 707.2 40.07 721.07 53.94C734.93 67.8 744 88.31 744 114.59L775 114.59L806 114.59C806 73.47 791.48 36.68 764.91 10.1C738.34 -16.48 701.56 -31 660.43 -31L660.43 0ZM775 114.59L744 114.59L744 431.41L775 431.41L806 431.41L806 114.59L775 114.59ZM775 431.41L744 431.41C744 459.67 734.76 479.78 721.11 492.88C707.3 506.12 686.04 515 657.07 515L657.07 546L657.07 577C698.85 577 736.56 563.97 764.03 537.61C791.65 511.11 806 473.92 806 431.41L775 431.41ZM657.07 546L657.07 515L249.35 515L249.35 546L249.35 577L657.07 577L657.07 546ZM84.24 535.89L91.34 505.71C67.92 500.2 53.96 490.74 45.44 479.38C36.74 467.77 31 450.56 31 424.67L0 424.67L-31 424.67C-31 459.44 -23.26 491.1 -4.16 516.57C15.12 542.28 43.27 558.09 77.14 566.06L84.24 535.89ZM0 424.67L31 424.67L31 114.59L0 114.59L-31 114.59L-31 424.67L0 424.67ZM0 114.59L31 114.59C31 87.69 39.62 67.41 53.09 53.94C66.51 40.51 87.59 31 117.93 31L117.93 0L117.93 -31C74.15 -31 36.26 -16.92 9.25 10.1C-17.72 37.07 -31 74.09 -31 114.59L0 114.59Z" fill="#1E1E1E" stroke="none"/>
      </g>
      <g transform="translate(248, 400)">
        <path d="M0 0L222.32 0M222.32 0C323.37 0 384 60.64 384 141.5M384 141.5C384 222.36 323.37 283 222.32 283M222.32 283L131.37 283" fill="none" stroke="#1E1E1E" stroke-width="68" stroke-linejoin="round"/>
        <path d="M0 0L0 34L222.32 34L222.32 0L222.32 -34L0 -34L0 0ZM222.32 0L222.32 34C266.05 34 297.78 47.04 318.18 65.58C338.38 83.95 350 109.95 350 141.5L384 141.5L418 141.5C418 92.19 399.3 47.44 363.93 15.27C328.74 -16.72 279.63 -34 222.32 -34L222.32 0ZM384 141.5L350 141.5C350 173.05 338.38 199.05 318.18 217.42C297.78 235.96 266.05 249 222.32 249L222.32 283L222.32 317C279.63 317 328.74 299.72 363.93 267.73C399.3 235.56 418 190.81 418 141.5L384 141.5ZM222.32 283L222.32 249L131.37 249L131.37 283L131.37 317L222.32 317L222.32 283Z" fill="#1E1E1E" stroke="none"/>
      </g>
      <g transform="translate(296, 542)">
        <path d="M202 0L0 0M0 0L0 249" fill="none" stroke="#1E1E1E" stroke-width="65" stroke-linecap="round" stroke-linejoin="round"/>
        <path d="M202 32.5C219.95 32.5 234.5 17.95 234.5 0C234.5 -17.95 219.95 -32.5 202 -32.5L202 0L202 32.5ZM0 0L0 -32.5C-17.95 -32.5 -32.5 -17.95 -32.5 0L0 0ZM-32.5 249C-32.5 266.95 -17.95 281.5 0 281.5C17.95 281.5 32.5 266.95 32.5 249L0 249L-32.5 249ZM202 0L202 -32.5L0 -32.5L0 0L0 32.5L202 32.5L202 0ZM0 0L-32.5 0L-32.5 249L0 249L32.5 249L32.5 0L0 0Z" fill="#1E1E1E" stroke="none"/>
      </g>
      <g transform="translate(665.89, 325.89)">
        <g transform="translate(0, 0)">
          <path d="M0 0C80.89 0 144.93 64.04 144.93 144.93" fill="none" stroke="#1E1E1E" stroke-width="24" stroke-linecap="round"/>
          <path d="M0 -12C-6.63 -12 -12 -6.63 -12 0C-12 6.63 -6.63 12 0 12L0 0L0 -12ZM132.93 144.93C132.93 151.55 138.3 156.93 144.93 156.93C151.55 156.93 156.93 151.55 156.93 144.93L144.93 144.93L132.93 144.93ZM0 0L0 12C74.26 12 132.93 70.66 132.93 144.93L144.93 144.93L156.93 144.93C156.93 57.41 87.52 -12 0 -12L0 0Z" fill="#1E1E1E" stroke="none"/>
        </g>
        <g transform="translate(10.11, 50.56)">
          <path d="M0 0C50.56 0 87.63 37.07 87.63 87.63" fill="none" stroke="#1E1E1E" stroke-width="24" stroke-linecap="round"/>
          <path d="M0 -12C-6.63 -12 -12 -6.63 -12 0C-12 6.63 -6.63 12 0 12L0 0L0 -12ZM75.63 87.63C75.63 94.26 81 99.63 87.63 99.63C94.26 99.63 99.63 94.26 99.63 87.63L87.63 87.63L75.63 87.63ZM0 0L0 12C43.93 12 75.63 43.7 75.63 87.63L87.63 87.63L99.63 87.63C99.63 30.45 57.18 -12 0 -12L0 0Z" fill="#1E1E1E" stroke="none"/>
        </g>
        <g transform="translate(10.11, 98.11)">
          <path d="M0 0C23.59 0 40.44 16.85 40.44 40.44" fill="none" stroke="#1E1E1E" stroke-width="24" stroke-linecap="round"/>
          <path d="M0 -12C-6.63 -12 -12 -6.63 -12 0C-12 6.63 -6.63 12 0 12L0 0L0 -12ZM28.44 40.44C28.44 47.07 33.82 52.44 40.44 52.44C47.07 52.44 52.44 47.07 52.44 40.44L40.44 40.44L28.44 40.44ZM0 0L0 12C16.97 12 28.44 23.48 28.44 40.44L40.44 40.44L52.44 40.44C52.44 10.22 30.22 -12 0 -12L0 0Z" fill="#1E1E1E" stroke="none"/>
        </g>
      </g>
    </g>
  </g>
</svg>